<?xml version="1.0" standalone="no"?>
<!DOCTYPE svg PUBLIC "-//W3C//DTD SVG 20010904//EN"
 "http://www.w3.org/TR/2001/REC-SVG-20010904/DTD/svg10.dtd">
<svg version="1.0" xmlns="http://www.w3.org/2000/svg"
 width="623.000000pt" height="623.000000pt" viewBox="0 0 623.000000 623.000000"
 preserveAspectRatio="xMidYMid meet">
<metadata>
Created by potrace 1.11, written by Peter Selinger 2001-2013
</metadata>
<g transform="translate(0.000000,623.000000) scale(0.100000,-0.100000)"
fill="#000000" stroke="none">
<path d="M0 3120 l0 -3110 3115 0 3115 0 0 3110 0 3110 -3115 0 -3115 0 0
-3110z m2290 2316 c294 -53 552 -213 783 -486 l38 -45 27 35 c56 73 190 204
272 267 136 103 355 198 530 229 90 16 290 18 380 3 534 -85 967 -542 1102
-1160 20 -92 22 -133 22 -354 1 -218 -2 -266 -22 -378 -101 -560 -355 -1024
-832 -1521 -138 -144 -452 -419 -665 -583 -44 -34 -125 -97 -181 -140 -55 -44
-123 -95 -150 -113 -133 -92 -308 -235 -425 -348 l-57 -54 -103 94 c-140 125
-185 162 -467 376 -649 491 -997 822 -1273 1207 -254 354 -413 739 -469 1135
-20 134 -29 399 -19 505 60 623 448 1137 981 1299 46 14 108 30 138 35 84 13
306 12 390 -3z"/>
<path d="M3086 4782 c-3 -3 -6 -27 -6 -54 0 -62 -31 -155 -115 -344 -36 -81
-80 -189 -97 -239 -29 -82 -32 -102 -32 -215 -1 -121 0 -127 31 -193 45 -95
147 -197 223 -223 73 -25 169 -23 239 4 30 12 57 20 59 18 2 -3 6 -75 9 -161
l6 -157 -41 21 c-94 48 -208 32 -286 -39 -42 -39 -42 -39 -82 -25 -21 8 -53
14 -70 15 -42 0 -126 -26 -156 -49 l-25 -20 -159 85 c-176 93 -205 104 -282
104 -77 0 -132 -23 -387 -166 l-230 -129 -3 -424 c-1 -234 1 -428 6 -433 4 -4
69 30 144 77 75 46 149 90 165 98 30 15 12 24 393 -179 698 -373 891 -474 926
-484 61 -18 179 -9 239 19 46 21 120 64 595 346 85 50 245 145 355 210 245
145 255 152 290 216 24 45 27 59 22 114 -3 49 -11 73 -33 104 -55 76 -142 112
-235 97 -36 -6 -45 -3 -75 23 -48 43 -105 56 -174 42 -43 -9 -56 -8 -59 2 -9
29 -79 86 -118 96 -30 8 -41 16 -37 26 11 26 -24 120 -58 153 -49 51 -85 66
-160 67 -53 0 -71 4 -90 21 -34 32 -82 54 -133 61 l-45 6 0 88 c0 48 -4 90 -9
93 -4 3 -11 35 -15 71 -4 36 -9 78 -12 93 l-5 27 83 1 c150 2 266 72 328 199
22 44 25 63 25 155 -1 116 -12 152 -80 254 -59 89 -229 244 -315 288 -14 7
-42 23 -63 36 -111 68 -439 216 -451 204z m399 -1407 c4 -71 5 -128 2 -125 -6
5 -77 278 -77 295 0 6 12 18 28 27 l27 17 6 -42 c4 -23 10 -100 14 -172z"/>
</g>
</svg>
