<?xml version="1.0" standalone="no"?>
<!DOCTYPE svg PUBLIC "-//W3C//DTD SVG 20010904//EN"
 "http://www.w3.org/TR/2001/REC-SVG-20010904/DTD/svg10.dtd">
<svg version="1.0" xmlns="http://www.w3.org/2000/svg"
 width="792.000000pt" height="792.000000pt" viewBox="0 0 792.000000 792.000000"
 preserveAspectRatio="xMidYMid meet">
<metadata>
Created by potrace 1.11, written by Peter Selinger 2001-2013
</metadata>
<g transform="translate(0.000000,792.000000) scale(0.100000,-0.100000)"
fill="#000000" stroke="none">
<path d="M3380 7875 c-85 -13 -163 -24 -174 -24 -12 -1 -16 -6 -12 -16 4 -12
-5 -15 -52 -14 -49 1 -64 -3 -107 -32 -28 -18 -52 -36 -55 -40 -3 -4 -43 -10
-90 -14 -137 -11 -207 -24 -277 -52 -60 -24 -64 -27 -47 -40 10 -7 32 -13 48
-14 29 0 28 -1 -15 -19 -26 -10 -100 -30 -165 -44 -113 -24 -214 -54 -186 -55
31 -2 7 -19 -44 -31 -49 -12 -55 -16 -50 -35 5 -19 -1 -25 -40 -40 -25 -9
-116 -60 -202 -113 -141 -85 -217 -126 -277 -147 -18 -6 -18 -8 10 -23 l30
-15 -90 -44 c-79 -38 -88 -45 -35 -26 25 9 -1 -13 -165 -142 -267 -211 -400
-328 -380 -335 14 -5 9 -13 -31 -49 -33 -30 -42 -41 -26 -37 29 10 28 -5 -4
-35 -43 -40 -187 -264 -267 -416 -41 -77 -108 -197 -149 -265 -41 -67 -78
-132 -81 -143 -7 -20 -8 -21 47 50 14 18 15 19 16 2 0 -27 -47 -121 -86 -172
-44 -58 -27 -58 24 0 22 25 42 45 46 45 10 0 7 -58 -4 -65 -17 -10 -11 -25 10
-25 24 0 25 -9 4 -53 -12 -25 -27 -37 -66 -51 l-50 -18 6 -41 c3 -23 6 -53 6
-67 0 -29 -41 -113 -55 -114 -5 -1 -11 17 -13 39 -2 22 -7 44 -12 49 -11 11
-35 -28 -56 -92 -16 -51 -16 -61 0 -170 20 -145 20 -285 1 -377 -15 -67 -12
-139 5 -150 5 -3 20 0 34 6 36 17 40 8 29 -51 -11 -54 -8 -63 7 -27 8 17 9 12
5 -23 -14 -120 -26 -361 -27 -529 0 -170 3 -204 36 -400 21 -118 43 -242 51
-275 8 -34 13 -72 13 -86 0 -14 12 -56 26 -94 28 -73 46 -186 29 -186 -18 0
-44 37 -58 82 l-14 43 0 -35 c-1 -61 28 -281 45 -339 15 -52 69 -161 80 -161
3 0 2 10 -2 23 -6 21 -6 22 14 4 28 -25 74 -116 112 -222 18 -49 52 -132 76
-184 24 -52 44 -95 44 -96 0 -1 -11 0 -25 3 -15 2 -25 0 -25 -7 0 -6 35 -53
78 -103 42 -51 106 -129 142 -173 182 -226 367 -413 565 -570 73 -58 98 -85
124 -135 31 -59 34 -61 51 -45 18 16 21 16 47 -3 46 -33 65 -59 59 -80 -5 -14
4 -29 33 -55 56 -50 93 -67 149 -67 26 0 54 -6 61 -12 11 -11 13 -10 9 2 -3 8
-34 39 -69 69 -73 62 -86 78 -71 93 7 7 31 -7 74 -43 34 -29 135 -100 223
-157 197 -129 240 -164 261 -211 16 -36 19 -38 157 -80 604 -186 887 -248
1260 -277 55 -4 87 -3 87 3 0 6 55 13 133 16 81 4 176 15 247 30 67 15 121 22
130 17 19 -11 57 9 99 54 35 36 35 36 125 37 113 1 188 11 184 24 -2 6 35 13
87 16 74 5 122 17 270 67 215 73 709 271 678 272 -26 0 -27 5 -12 47 9 27 17
32 72 43 34 6 94 27 134 45 102 47 293 181 398 279 88 82 90 84 72 104 -18 20
-17 21 53 58 48 26 65 40 55 44 -18 6 30 58 273 295 146 142 217 225 252 295
l23 45 -46 -42 c-29 -27 -52 -40 -62 -37 -8 3 -15 9 -15 12 0 3 43 72 96 154
135 208 253 412 243 419 -5 3 15 46 45 97 53 90 54 91 33 105 l-21 14 27 57
c15 32 45 108 66 169 59 171 72 199 87 193 19 -7 17 4 -3 19 -15 11 -12 26 35
176 57 180 77 259 86 333 l6 49 -21 -27 c-25 -31 -39 -26 -39 16 0 20 9 39 29
57 25 23 30 37 36 97 9 103 29 146 72 160 2 0 -7 38 -18 84 l-21 84 24 21 c25
22 25 22 7 56 -22 41 -23 103 -4 184 15 62 19 163 9 203 -5 19 -9 20 -22 10
-13 -12 -15 -1 -10 95 6 109 4 122 -42 335 -6 28 -16 52 -21 52 -12 0 -12 -37
0 -44 15 -10 45 -216 32 -216 -15 0 -39 35 -66 97 -15 34 -36 70 -46 79 -23
21 -26 64 -4 64 8 0 15 4 15 9 0 15 -18 23 -22 10 -2 -5 -11 -7 -21 -4 -11 5
-17 18 -17 41 0 46 -16 117 -61 272 -52 180 -73 282 -59 296 5 5 10 26 9 45
l-1 36 -10 -43 c-9 -41 -11 -43 -27 -28 -28 25 -58 88 -45 93 6 2 19 10 29 17
17 12 15 18 -24 93 -23 44 -48 89 -56 99 -16 23 -20 15 -30 -59 -5 -39 -9 -46
-20 -37 -22 18 -90 166 -129 280 -20 58 -57 148 -82 201 -41 86 -51 99 -84
112 -29 11 -62 47 -155 166 -111 143 -158 191 -213 220 -36 19 -38 6 -5 -36
55 -70 47 -68 -33 8 -43 42 -149 128 -234 191 -85 64 -171 130 -190 148 l-35
32 50 -28 c28 -15 91 -53 140 -84 50 -31 149 -94 220 -139 l130 -82 -65 58
c-36 32 -101 92 -145 133 -225 214 -406 347 -578 428 l-48 22 16 -30 c8 -16
15 -34 15 -40 0 -21 -30 -9 -60 23 -17 19 -75 57 -129 86 -68 35 -100 58 -104
73 -6 20 -9 21 -103 15 l-98 -7 -170 103 c-159 96 -174 103 -216 99 -63 -5
-323 34 -591 89 -353 72 -502 91 -724 95 -184 3 -229 0 -365 -21z m1456 -239
c87 -32 101 -46 46 -46 -47 0 -52 -8 -22 -35 11 -10 20 -24 20 -31 0 -7 6 -15
13 -17 6 -3 1 -6 -12 -6 -15 -1 -36 12 -58 37 -32 34 -33 37 -14 40 33 5 25
17 -30 42 -28 13 -53 28 -55 32 -10 16 46 8 112 -16z m267 -10 c18 -7 48 -30
67 -51 22 -23 27 -34 15 -27 -11 5 -47 15 -79 21 -58 11 -111 44 -100 62 8 14
61 11 97 -5z m-1807 -183 c-7 -8 -136 -29 -136 -23 0 4 21 16 47 27 36 15 52
17 69 9 13 -6 21 -12 20 -13z m3041 -681 c21 6 42 -17 22 -24 -5 -2 4 -22 22
-46 17 -23 26 -42 21 -42 -19 0 -124 103 -161 159 -59 88 -58 91 11 17 51 -55
68 -68 85 -64z m-4903 22 c-16 -19 -44 -45 -63 -56 -33 -21 -33 -21 -23 -2 15
28 102 107 109 100 4 -3 -7 -22 -23 -42z m-151 -84 c-23 -22 -53 -40 -65 -40
-13 -1 -40 -7 -60 -14 -35 -13 -37 -12 -27 5 14 26 47 46 95 57 22 5 49 14 60
20 39 23 38 10 -3 -28z m5954 -735 c13 -44 26 -98 29 -120 l5 -40 -22 40 c-12
22 -46 66 -75 97 -51 54 -64 80 -45 92 4 3 16 -12 26 -34 21 -48 35 -43 35 11
0 63 19 43 47 -46z m-2082 -301 c234 -30 484 -109 685 -216 234 -124 507 -346
761 -620 85 -92 109 -124 109 -146 0 -32 -16 -52 -41 -52 -9 0 -55 18 -101 40
-428 204 -908 90 -1451 -346 -154 -123 -291 -248 -579 -531 -446 -438 -685
-614 -1028 -761 -575 -246 -1156 -254 -1497 -21 -23 16 -44 29 -47 29 -3 0
-30 -45 -61 -99 -102 -181 -194 -417 -240 -615 -23 -104 -26 -105 -142 -85
-81 14 -90 28 -74 113 21 108 82 316 127 435 48 125 147 327 213 435 23 36 41
78 41 92 0 14 9 71 20 127 11 56 25 129 31 162 20 107 99 328 156 435 220 418
625 803 1227 1165 462 278 919 439 1342 475 139 11 393 4 549 -16z m1955 -31
c-1 -36 -2 -37 -15 -19 -19 26 -19 56 0 56 11 0 15 -11 15 -37z m358 -38 c14
-28 14 -29 -2 -16 -24 20 -38 49 -30 63 6 9 9 8 12 -2 3 -8 12 -28 20 -45z
m-123 -389 c-15 -11 -15 -15 0 -54 10 -24 15 -46 11 -49 -14 -14 -37 70 -31
111 10 56 17 65 28 32 7 -21 5 -30 -8 -40z m-6840 -177 c-14 -41 -20 -48 -27
-36 -6 11 -2 29 12 58 28 55 36 43 15 -22z m7006 -419 c-2 -8 -9 -35 -16 -60
l-12 -45 -7 40 c-4 22 -10 50 -13 63 -5 21 -2 23 23 20 20 -2 28 -8 25 -18z
m-7014 -1862 c-3 -8 -6 -5 -6 6 -1 11 2 17 5 13 3 -3 4 -12 1 -19z m68 -239
c29 -75 45 -91 20 -19 -32 90 -12 59 50 -80 36 -80 64 -154 63 -164 -6 -38
-24 -25 -56 36 -17 35 -48 94 -69 132 -22 42 -38 89 -41 118 -2 26 -2 48 0 48
3 0 17 -32 33 -71z m338 -596 c19 -32 60 -100 92 -150 54 -88 149 -283 141
-291 -9 -8 -46 24 -70 62 -15 24 -26 33 -26 23 0 -25 -12 -21 -46 16 -47 50
-53 60 -89 147 -29 70 -31 80 -15 75 18 -6 18 -4 0 42 -19 51 -35 133 -26 133
3 0 20 -26 39 -57z m6060 -329 c-43 -78 -48 -84 -51 -58 -5 49 20 106 57 131
19 13 36 21 38 19 3 -2 -17 -44 -44 -92z m-73 -30 c0 -14 -56 -77 -81 -90 -36
-18 -93 -18 -109 1 -11 13 -6 18 26 31 22 9 64 27 94 40 58 24 70 28 70 18z
m-249 -119 c-11 -14 -23 -39 -26 -56 -8 -35 -25 -29 -25 9 0 19 10 33 33 49
41 28 42 28 18 -2z m-5151 -210 c67 -60 137 -131 155 -156 43 -60 104 -108
115 -90 5 10 18 5 51 -19 45 -32 95 -87 87 -96 -3 -2 -58 33 -124 78 -130 91
-328 275 -427 398 -80 99 -91 117 -29 50 27 -30 105 -104 172 -165z m-71 -53
c-36 -4 -49 9 -49 53 l0 29 41 -39 40 -40 -32 -3z m4560 -301 c12 -8 10 -12
-11 -22 -28 -12 -58 -7 -58 10 0 9 19 17 45 20 6 0 17 -3 24 -8z m-71 -193
c-6 -20 -138 -106 -188 -122 -27 -9 -38 -10 -27 -3 10 7 60 40 110 74 95 64
111 72 105 51z m-244 -193 c-5 -11 1 -15 22 -16 25 0 26 -1 9 -8 -11 -4 -37
-6 -58 -3 l-39 4 29 19 c34 23 44 24 37 4z m-3019 -5 c18 -8 18 -9 -5 -9 -14
0 -32 4 -40 9 -12 8 -12 10 5 9 11 0 29 -4 40 -9z m610 -141 c155 -28 195 -38
195 -49 0 -14 -65 -23 -115 -15 -25 3 -69 14 -98 24 -62 22 -163 75 -127 66
14 -3 79 -15 145 -26z m1277 -24 c-61 -20 -132 -29 -132 -18 0 6 30 14 68 20
94 14 114 13 64 -2z m-482 -69 c0 -10 -19 -16 -67 -21 -115 -12 -117 -25 -9
-40 35 -5 45 -9 35 -16 -23 -15 -96 -10 -181 12 -44 11 -97 19 -117 17 -34 -3
-36 -5 -35 -35 l2 -32 -67 25 c-77 29 -111 50 -111 67 0 9 50 11 212 9 158 -2
227 1 268 12 72 18 70 18 70 2z m47 -32 c-3 -3 -12 -4 -19 -1 -8 3 -5 6 6 6
11 1 17 -2 13 -5z"/>
<path d="M4748 5305 c-393 -56 -771 -195 -1167 -430 -109 -65 -362 -246 -501
-359 -218 -177 -641 -590 -831 -811 -150 -174 -320 -389 -325 -413 -7 -26 11
-52 36 -52 11 0 63 53 127 128 314 366 779 807 1127 1069 270 203 648 444 861
548 346 169 643 251 942 262 188 7 334 -8 513 -53 156 -39 150 -38 150 -20 0
24 -195 88 -372 122 -115 22 -434 27 -560 9z"/>
<path d="M991 1695 c0 -5 6 -21 14 -35 8 -14 14 -20 14 -15 0 6 -6 21 -14 35
-8 14 -14 21 -14 15z"/>
<path d="M310 3323 c0 -15 5 -35 10 -43 7 -11 10 -6 10 22 0 20 -4 40 -10 43
-6 4 -10 -6 -10 -22z"/>
<path d="M391 2884 c0 -11 3 -14 6 -6 3 7 2 16 -1 19 -3 4 -6 -2 -5 -13z"/>
</g>
</svg>
