<?xml version="1.0" standalone="no"?>
<!DOCTYPE svg PUBLIC "-//W3C//DTD SVG 20010904//EN"
 "http://www.w3.org/TR/2001/REC-SVG-20010904/DTD/svg10.dtd">
<svg version="1.0" xmlns="http://www.w3.org/2000/svg"
 width="623.000000pt" height="623.000000pt" viewBox="0 0 623.000000 623.000000"
 preserveAspectRatio="xMidYMid meet">
<metadata>
Created by potrace 1.11, written by Peter Selinger 2001-2013
</metadata>
<g transform="translate(0.000000,623.000000) scale(0.100000,-0.100000)"
fill="#000000" stroke="none">
<path d="M0 3115 l0 -3105 3115 0 3115 0 0 3105 0 3105 -3115 0 -3115 0 0
-3105z m2200 2335 c238 -30 427 -107 625 -256 99 -75 166 -142 262 -262 l19
-24 46 59 c93 117 219 230 328 293 87 50 230 116 299 139 409 134 880 16 1201
-300 150 -148 224 -251 310 -433 133 -279 179 -534 159 -866 -45 -759 -417
-1421 -1159 -2065 -96 -83 -232 -196 -301 -251 -223 -176 -503 -391 -525 -402
-29 -16 -142 -108 -243 -200 -127 -116 -109 -112 -188 -40 -37 35 -70 65 -73
68 -19 20 -146 121 -330 264 -444 343 -500 388 -730 587 -367 318 -672 690
-855 1045 -92 177 -184 431 -223 614 -69 320 -71 661 -8 932 44 183 151 415
262 562 260 344 590 522 1014 545 14 0 64 -4 110 -9z"/>
<path d="M3080 4733 c0 -64 -24 -137 -108 -335 -105 -244 -134 -335 -140 -445
-5 -102 6 -160 44 -237 32 -63 96 -139 140 -166 19 -12 31 -27 28 -32 -4 -7
-2 -8 4 -4 6 4 34 -1 62 -10 63 -21 148 -15 215 15 27 12 52 18 57 13 4 -4 11
-79 15 -165 l6 -157 -42 21 c-97 46 -217 30 -290 -39 -38 -36 -40 -37 -77 -25
-77 23 -176 7 -233 -38 -14 -12 -28 -16 -35 -10 -10 7 -117 64 -275 147 -41
21 -72 29 -131 32 -94 5 -126 -4 -250 -73 -52 -29 -122 -67 -155 -86 -33 -18
-98 -54 -145 -80 l-85 -47 -3 -432 c-2 -397 -1 -432 14 -426 9 4 61 34 116 69
130 82 170 106 187 114 8 4 46 -10 85 -30 98 -51 445 -234 536 -284 124 -67
540 -287 620 -328 70 -36 81 -39 165 -39 113 -1 102 -6 481 219 382 227 476
283 654 388 80 47 164 99 187 116 133 97 114 295 -35 368 -47 23 -61 25 -121
20 -63 -5 -71 -4 -91 18 -46 49 -141 66 -227 40 -17 -6 -23 -3 -23 8 0 29 -51
77 -101 94 -42 15 -49 22 -49 44 0 120 -122 224 -241 205 -36 -6 -45 -3 -67
20 -37 37 -75 54 -133 61 l-49 6 0 76 c0 73 -14 227 -26 283 l-5 26 59 -5 c67
-6 153 15 211 52 165 103 210 301 114 495 -29 59 -59 97 -138 175 -118 118
-220 188 -406 278 -110 53 -303 137 -316 137 -2 0 -3 -21 -3 -47z m403 -1205
c4 -35 9 -119 12 -188 l5 -125 -17 50 c-10 28 -20 52 -23 55 -7 5 -60 207 -60
226 0 11 49 43 66 44 6 0 14 -27 17 -62z"/>
</g>
</svg>
